<?xml version="1.0" standalone="no"?>
<!DOCTYPE svg PUBLIC "-//W3C//DTD SVG 20010904//EN"
 "http://www.w3.org/TR/2001/REC-SVG-20010904/DTD/svg10.dtd">
<svg version="1.0" xmlns="http://www.w3.org/2000/svg"
 width="700.000000pt" height="700.000000pt" viewBox="0 0 700.000000 700.000000"
 preserveAspectRatio="xMidYMid meet">
<metadata>
Created by potrace 1.14, written by Peter Selinger 2001-2017
</metadata>
<g transform="translate(0.000000,700.000000) scale(0.100000,-0.100000)"
fill="#000000" stroke="none">
<path d="M1811 6929 c-78 -85 -24 -170 117 -184 177 -17 480 -172 531 -272 29
-58 58 -214 67 -367 3 -50 7 -104 8 -119 3 -24 -3 -31 -43 -54 -201 -116 -380
-229 -534 -340 -48 -35 -92 -63 -96 -63 -5 0 -20 15 -34 33 -63 80 -178 184
-247 223 -106 60 -230 84 -318 62 -21 -5 -45 -10 -55 -13 -85 -20 -268 -138
-367 -236 -209 -209 -294 -468 -239 -732 25 -121 80 -231 187 -371 l90 -120
-14 -40 c-27 -74 -72 -257 -89 -357 -26 -151 -36 -406 -21 -519 54 -397 176
-706 443 -1113 60 -91 246 -345 263 -357 3 -3 13 -14 21 -26 8 -11 35 -45 61
-75 26 -30 57 -65 68 -79 121 -143 508 -536 700 -711 111 -101 256 -229 304
-270 230 -192 336 -300 336 -343 0 -30 -8 -38 -65 -65 -73 -36 -149 -117 -163
-174 -15 -58 -15 -88 1 -108 17 -22 120 -54 210 -65 23 -3 51 -7 62 -9 157
-33 845 -26 1011 10 12 3 38 7 58 11 52 8 117 32 137 50 13 12 16 28 14 66 -7
90 -70 168 -182 225 -44 22 -53 31 -53 52 1 47 43 100 159 201 35 30 69 60 75
65 6 6 40 35 76 65 36 30 81 69 100 86 19 17 80 72 135 120 476 422 915 903
1177 1289 249 366 415 749 455 1045 2 19 8 58 13 85 9 54 6 417 -4 475 -20
106 -30 156 -57 264 l-29 119 22 33 c13 18 62 83 109 146 121 159 165 250 192
389 48 258 -49 530 -259 729 -125 118 -289 212 -409 235 -51 9 -153 7 -174 -5
-12 -6 -21 -8 -21 -5 0 11 -117 -48 -174 -89 -53 -37 -148 -132 -222 -219
l-21 -25 -74 56 c-107 80 -349 240 -491 323 -68 40 -133 78 -144 85 -20 12
-22 20 -18 86 1 40 6 100 9 133 28 259 52 322 150 398 98 75 330 171 442 182
103 10 153 45 153 106 0 29 -8 47 -31 74 l-32 36 -76 -6 c-42 -3 -96 -8 -121
-10 -624 -56 -1937 -60 -2725 -10 -89 6 -108 7 -253 20 -72 6 -72 6 -101 -26z
m1267 -1068 c12 -6 25 -24 29 -39 3 -15 7 -186 7 -379 l0 -353 198 0 198 0 1
23 c0 12 1 175 3 362 2 359 4 376 48 391 33 11 268 12 300 1 54 -17 53 -12 55
-406 1 -201 2 -368 2 -371 1 -3 43 -5 94 -6 201 -1 341 -39 484 -130 193 -123
353 -370 409 -629 3 -16 7 -84 9 -150 3 -125 -7 -195 -46 -315 -20 -64 -101
-236 -120 -254 -5 -6 19 -37 64 -81 81 -80 99 -100 147 -169 59 -87 124 -236
136 -313 2 -15 7 -53 12 -85 13 -86 6 -252 -14 -333 -1 -5 -4 -21 -7 -35 -10
-49 -51 -156 -74 -192 -12 -21 -23 -41 -23 -45 0 -14 -87 -125 -140 -179 -115
-118 -244 -194 -397 -234 -65 -16 -171 -24 -360 -24 -146 -1 -173 -3 -174 -16
-1 -8 -2 -172 -3 -365 -2 -377 -4 -389 -54 -402 -44 -11 -285 -8 -309 5 -11 6
-25 24 -30 39 -5 16 -9 185 -9 381 l1 352 -200 0 -201 0 0 -363 c-1 -389 -2
-401 -52 -414 -34 -9 -258 -9 -294 0 -51 13 -52 25 -54 407 -1 195 -2 360 -3
365 -1 6 -144 10 -407 10 l-406 1 -23 27 c-14 16 -22 36 -20 49 2 13 7 46 11
73 4 28 9 57 11 65 2 8 6 32 9 53 11 72 21 92 54 114 18 13 45 23 60 23 61 0
167 51 208 100 49 59 82 131 96 211 3 19 7 400 7 845 1 864 2 854 -49 964 -30
65 -119 158 -182 190 -23 12 -86 33 -138 46 -53 13 -103 30 -111 39 -13 13
-16 44 -18 168 -1 84 1 158 5 164 23 37 50 39 476 39 270 -1 416 2 417 9 0 6
2 173 2 371 2 337 3 363 21 382 21 25 43 27 201 26 72 -1 130 -6 143 -13z
m-1639 -560 c28 -32 51 -62 51 -66 0 -5 -51 -58 -113 -119 -62 -61 -146 -151
-186 -199 l-74 -88 -19 28 c-29 44 -47 117 -44 181 6 116 85 232 216 317 l65
43 26 -19 c15 -10 50 -45 78 -78z m4297 28 c183 -128 254 -306 183 -459 -15
-30 -35 -65 -45 -78 l-19 -23 -92 113 c-50 62 -133 154 -184 205 l-92 92 25
38 c33 50 135 153 152 153 7 0 39 -19 72 -41z"/>
<path d="M3123 4483 c-6 -2 -9 -641 -4 -788 1 -20 6 -21 329 -19 180 1 342 4
360 8 144 29 248 114 303 246 19 45 23 74 23 155 0 87 -3 107 -26 155 -38 81
-79 132 -140 172 -100 67 -132 71 -505 73 -182 0 -335 -1 -340 -2z"/>
<path d="M3185 3300 l-70 -5 0 -400 0 -400 455 0 455 0 69 29 c188 79 282 273
230 471 -42 165 -177 284 -340 301 -65 8 -708 10 -799 4z"/>
</g>
</svg>
