<?xml version="1.0" encoding="UTF-8" standalone="no"?>
<!-- Generator: Adobe Illustrator 24.2.1, SVG Export Plug-In . SVG Version: 6.00 Build 0)  -->

<svg
   version="1.1"
   id="Слой_1"
   x="0px"
   y="0px"
   viewBox="0 0 234.25 288"
   style="enable-background:new 0 0 234.25 288;"
   xml:space="preserve"
   sodipodi:docname="istockphoto-1406076059-1024x1024.svg"
   inkscape:version="1.3 (0e150ed6c4, 2023-07-21)"
   xmlns:inkscape="http://www.inkscape.org/namespaces/inkscape"
   xmlns:sodipodi="http://sodipodi.sourceforge.net/DTD/sodipodi-0.dtd"
   xmlns="http://www.w3.org/2000/svg"
   xmlns:svg="http://www.w3.org/2000/svg"><defs
   id="defs5" /><sodipodi:namedview
   id="namedview5"
   pagecolor="#ffffff"
   bordercolor="#666666"
   borderopacity="1.0"
   inkscape:showpageshadow="2"
   inkscape:pageopacity="0.0"
   inkscape:pagecheckerboard="0"
   inkscape:deskcolor="#d1d1d1"
   inkscape:zoom="2.6025458"
   inkscape:cx="150.42963"
   inkscape:cy="147.93208"
   inkscape:window-width="1906"
   inkscape:window-height="1037"
   inkscape:window-x="1937"
   inkscape:window-y="36"
   inkscape:window-maximized="1"
   inkscape:current-layer="Слой_1" />&#10;<style
   type="text/css"
   id="style1">&#10;	.st0{fill:#FFFFFF;}&#10;	.st1{fill:#EFAD3A;}&#10;</style>&#10;<path
   class="st0"
   d="M227.69,209.38c0-1.52,0-3.01,0-4.53c0.12-0.01,0.24-0.02,0.36-0.02c1.27,0,2.54,0,3.81,0  c0.54,0,1.06,0.08,1.48,0.43c0.74,0.62,1.12,1.59,0.79,2.63c-0.28,0.9-1.11,1.5-2.12,1.51c-1.38,0.01-2.76,0-4.14,0  C227.82,209.4,227.77,209.39,227.69,209.38z"
   id="path1" />&#10;<path
   class="st0"
   d="M227.7,198.17c1.18,0,2.35-0.05,3.5,0.01c1.21,0.06,2.09,1.24,1.96,2.48c-0.14,1.25-1,2.05-2.25,2.06  c-1.06,0.01-2.12,0-3.21,0C227.7,201.21,227.7,199.71,227.7,198.17z"
   id="path2" />&#10;<g
   id="g5"
   transform="matrix(1.0826002,0,0,1.0986571,-8.0167705,-13.040065)">&#10;	<path
   class="st1"
   d="m 139.22,122.62 c 0.94,-8.3 -5.13,-16.15 -13.42,-16.56 -7.92,-0.4 -15.89,-0.09 -24.01,-0.09 0,10.25 0,20.26 0,30.44 7.44,0 14.72,0.07 21.99,-0.02 8.59,-0.1 14.51,-5.45 15.44,-13.77 z"
   id="path3" />&#10;	<path
   class="st1"
   d="m 140.41,153.32 c -2.89,-2.34 -6.44,-2.91 -10.14,-2.89 -8.7,0.04 -17.41,0.01 -26.11,0.02 -0.8,0 -1.59,0.1 -2.44,0.15 0,10.19 0,20.14 0,30.29 0.58,0.06 0.9,0.12 1.23,0.12 9.46,0 18.91,0.07 28.37,-0.02 6.89,-0.07 12.58,-4.1 14.52,-10.1 2.23,-6.93 -0.33,-13.44 -5.43,-17.57 z"
   id="path4" />&#10;	<path
   class="st1"
   d="m 222.3,81.43 c -1.67,-8.93 -7.38,-16.87 -16.09,-22.35 -4.16,-2.62 -7.84,-3.9 -11.24,-3.92 -0.03,0 -0.06,0 -0.09,0 -7.72,0 -14.51,6.55 -19.43,13.24 -14.03,-10.89 -26.89,-17.9 -26.89,-17.9 0,0 0.14,-10.79 2.14,-17.99 1.99,-7.2 18.79,-11.63 18.79,-11.63 0,0 6.34,0.33 6.91,-3.48 0.35,-2.31 -1.32,-3.84 -2.69,-4.69 -12.84,1.42 -34.58,2.35 -59.23,2.35 -24.65,0 -46.39,-0.93 -59.23,-2.35 -1.37,0.85 -3.04,2.38 -2.69,4.69 0.57,3.81 6.91,3.48 6.91,3.48 0,0 16.8,4.44 18.79,11.63 1.99,7.2 2.14,17.99 2.14,17.99 0,0 -11.61,6.34 -24.79,16.3 -4.87,-6.44 -11.44,-12.55 -18.89,-12.55 -0.03,0 -0.06,0 -0.09,0 -3.41,0.02 -7.08,1.3 -11.25,3.93 -8.7,5.48 -14.41,13.42 -16.07,22.35 -1.49,8.02 0.45,16.16 5.47,22.91 l 4.79,6.44 c -9.93,31.79 -11.92,68.91 70.5,139.53 0,0 8.66,7.25 4.48,8.86 -4.25,1.64 -8.36,5.49 -7.62,10.7 H 87 c 0,2.37 12.3,4.29 27.48,4.3 15.18,0 27.48,-1.92 27.48,-4.3 h 0.08 c 0.75,-5.22 -3.36,-9.07 -7.62,-10.7 -4.18,-1.61 4.48,-8.86 4.48,-8.86 79.69,-68.28 80.46,-105.25 71.45,-136.35 l 6.48,-8.71 c 5.03,-6.75 6.97,-14.89 5.47,-22.92 z m -27.27,-8.92 c 0.42,0.18 1.09,0.51 2.04,1.11 4.6,2.9 7.57,6.79 8.34,10.96 0.62,3.31 -0.2,6.6 -2.35,9.5 l -0.93,1.25 c -3.77,-5.51 -8.45,-10.77 -13.52,-15.63 2.4,-3.41 4.87,-6.24 6.42,-7.19 z M 26.18,83.68 c 0.78,-4.17 3.74,-8.07 8.33,-10.96 0.99,-0.62 1.68,-0.95 2.03,-1.12 1.42,0.84 3.57,3.25 5.77,6.26 -5.09,4.69 -9.89,9.79 -13.87,15.16 -2.07,-2.86 -2.86,-6.09 -2.26,-9.34 z m 148.81,87.45 c -0.7,9.22 -4.43,17.06 -11.4,23.57 -6.23,5.81 -13.54,8.02 -21.87,7.95 -3.42,-0.03 -6.84,-0.01 -10.51,-0.01 -0.06,1.03 -0.14,1.89 -0.14,2.75 -0.01,7.61 0.01,15.22 -0.01,22.82 -0.01,3.42 -0.79,4.14 -4.34,4.17 -2.01,0.02 -4.02,0.02 -6.03,0 -3.6,-0.04 -4.37,-0.8 -4.37,-4.41 -0.01,-7.44 0,-14.89 0,-22.33 0,-0.89 0,-1.78 0,-2.84 -4.89,0 -9.62,0 -14.69,0 0,0.86 0,1.73 0,2.59 0,7.61 0.01,15.22 0,22.82 0,3.4 -0.77,4.13 -4.31,4.16 -2.01,0.02 -4.02,0.02 -6.03,0 -3.56,-0.03 -4.29,-0.74 -4.3,-4.15 -0.01,-7.53 0,-15.05 0,-22.58 0,-0.89 0,-1.77 0,-3.01 -1.06,0 -1.94,0 -2.83,0 -8.04,0 -16.09,0 -24.13,0 -4.33,0 -5.04,-0.83 -4.29,-4.94 0.41,-2.25 0.83,-4.5 1.15,-6.77 0.28,-1.97 1.32,-3.16 3.35,-3.36 7.49,-0.71 11.3,-6.23 11.86,-13.25 0.08,-1.06 0.15,-2.12 0.15,-3.18 0.01,-18 -0.12,-36 0.07,-53.99 0.07,-7.01 -2.2,-12.66 -8.23,-16.51 -1.75,-1.12 -4.01,-1.62 -6.11,-2.04 -3.62,-0.73 -4.12,-1.15 -4.12,-4.83 0,-2.21 -0.02,-4.42 0,-6.63 0.03,-2.94 0.87,-3.8 3.88,-3.81 8.71,-0.02 17.43,-0.01 26.14,-0.01 0.91,0 1.82,0 3.1,0 0,-1.02 0,-1.88 0,-2.74 0,-7.61 -0.01,-15.22 0,-22.82 0,-3.45 0.71,-4.12 4.29,-4.15 2.26,-0.02 4.53,-0.05 6.79,0.01 2.72,0.08 3.56,0.93 3.57,3.63 0.03,7.69 0.01,15.38 0.01,23.07 0,0.89 0,1.78 0,2.83 4.88,0 9.6,0 14.56,0 0.04,-0.87 0.11,-1.74 0.11,-2.61 0.01,-7.61 -0.01,-15.22 0.01,-22.82 0.01,-3.25 0.86,-4.07 4.15,-4.12 2.01,-0.03 4.02,-0.02 6.03,0 3.86,0.02 4.6,0.72 4.6,4.42 0.02,7.44 0,14.89 0,22.33 0,0.89 0,1.77 0,3.03 15.3,-1.17 26.18,5.25 32.73,18.36 6.43,12.85 5.01,25.47 -2.46,37.85 9.99,8.37 14.58,18.9 13.62,31.55 z"
   id="path5" />&#10;</g>&#10;</svg>
